<svg width="213" height="64" viewBox="0 0 213 64" fill="none" xmlns="http://www.w3.org/2000/svg">
<g clip-path="url(#clip0_1_1725)">
<path d="M22.3854 20.3157C22.2511 20.1124 22.0212 19.9932 21.7775 20.0003C21.5339 20.0076 21.3115 20.1405 21.1897 20.3516C21.1897 20.3516 20.554 21.4528 19.6831 22.961C19.6264 23.0592 19.5714 23.1585 19.5179 23.2584L26.6989 26.8489L22.3854 20.3157Z" fill="white"/>
<path d="M35.2969 27.5312H34.835L33.7365 26.4325C32.7282 25.4243 31.0875 25.4245 30.0791 26.4326L27.6268 28.885L13.0176 21.5805C12.7996 21.4715 12.5408 21.4831 12.3335 21.6113C12.1262 21.7393 12 21.9657 12 22.2094V25.2219C12 30.5101 15.8943 34.8447 20.9137 35.5982L13.7122 42.7997C13.5111 43.0008 13.451 43.3032 13.5598 43.5659C13.6686 43.8287 13.925 44 14.2094 44H18.7281C18.9146 44 19.0934 43.9259 19.2253 43.794L22.0319 40.9875H24.3765C29.5399 40.9875 33.7406 36.7868 33.7406 31.6234V30.0318L34.835 28.9374H35.2969C35.6852 28.9374 36 28.6226 36 28.2343C36 27.846 35.6852 27.5312 35.2969 27.5312Z" fill="white"/>
</g>
<path d="M50.1138 33.7002H54.2035V35.7221H48V25H50.1138V33.7002Z" fill="white"/>
<path d="M61.688 34.7724C60.9017 35.5485 59.9419 35.9365 58.8084 35.9365C57.6749 35.9365 56.715 35.5485 55.9287 34.7724C55.1527 33.9861 54.7646 33.0263 54.7646 31.8928C54.7646 30.7593 55.1527 29.8045 55.9287 29.0284C56.715 28.2422 57.6749 27.849 58.8084 27.849C59.9419 27.849 60.9017 28.2422 61.688 29.0284C62.4743 29.8045 62.8675 30.7593 62.8675 31.8928C62.8675 33.0263 62.4743 33.9861 61.688 34.7724ZM57.3226 33.4092C57.7209 33.8074 58.2161 34.0066 58.8084 34.0066C59.4006 34.0066 59.8959 33.8074 60.2942 33.4092C60.6924 33.0109 60.8915 32.5055 60.8915 31.8928C60.8915 31.2801 60.6924 30.7746 60.2942 30.3764C59.8959 29.9781 59.4006 29.779 58.8084 29.779C58.2161 29.779 57.7209 29.9781 57.3226 30.3764C56.9346 30.7746 56.7405 31.2801 56.7405 31.8928C56.7405 32.5055 56.9346 33.0109 57.3226 33.4092Z" fill="white"/>
<path d="M70.124 28.0635H72.054V35.3545C72.054 36.539 71.6609 37.4427 70.8746 38.0656C70.0985 38.6885 69.159 39 68.0562 39C67.2291 39 66.4989 38.8417 65.8658 38.5252C65.2429 38.2086 64.763 37.744 64.426 37.1313L66.1109 36.1663C66.4989 36.8811 67.1678 37.2385 68.1175 37.2385C68.7404 37.2385 69.2305 37.0751 69.5879 36.7484C69.9453 36.4216 70.124 35.957 70.124 35.3545V34.5274C69.542 35.3034 68.725 35.6915 67.6733 35.6915C66.5908 35.6915 65.682 35.3136 64.9468 34.558C64.2218 33.7921 63.8593 32.8629 63.8593 31.7702C63.8593 30.6878 64.2269 29.7637 64.9621 28.9978C65.6973 28.2319 66.601 27.849 67.6733 27.849C68.725 27.849 69.542 28.2371 70.124 29.0131V28.0635ZM66.4326 33.2867C66.841 33.6747 67.3567 33.8687 67.9796 33.8687C68.6025 33.8687 69.1131 33.6747 69.5113 33.2867C69.9198 32.8884 70.124 32.3829 70.124 31.7702C70.124 31.1678 69.9198 30.6725 69.5113 30.2845C69.1131 29.8862 68.6025 29.6871 67.9796 29.6871C67.3567 29.6871 66.841 29.8862 66.4326 30.2845C66.0343 30.6725 65.8352 31.1678 65.8352 31.7702C65.8352 32.3829 66.0343 32.8884 66.4326 33.2867Z" fill="white"/>
<path d="M80.3709 34.7724C79.5846 35.5485 78.6248 35.9365 77.4913 35.9365C76.3578 35.9365 75.3979 35.5485 74.6116 34.7724C73.8356 33.9861 73.4475 33.0263 73.4475 31.8928C73.4475 30.7593 73.8356 29.8045 74.6116 29.0284C75.3979 28.2422 76.3578 27.849 77.4913 27.849C78.6248 27.849 79.5846 28.2422 80.3709 29.0284C81.1572 29.8045 81.5504 30.7593 81.5504 31.8928C81.5504 33.0263 81.1572 33.9861 80.3709 34.7724ZM76.0055 33.4092C76.4037 33.8074 76.899 34.0066 77.4913 34.0066C78.0835 34.0066 78.5788 33.8074 78.9771 33.4092C79.3753 33.0109 79.5744 32.5055 79.5744 31.8928C79.5744 31.2801 79.3753 30.7746 78.9771 30.3764C78.5788 29.9781 78.0835 29.779 77.4913 29.779C76.899 29.779 76.4037 29.9781 76.0055 30.3764C75.6175 30.7746 75.4234 31.2801 75.4234 31.8928C75.4234 32.5055 75.6175 33.0109 76.0055 33.4092Z" fill="white"/>
<path d="M87.1566 29.9628H85.4258V33.1488C85.4258 33.4143 85.4921 33.6083 85.6249 33.7309C85.7576 33.8534 85.9516 33.9249 86.2069 33.9453C86.4622 33.9555 86.7788 33.9504 87.1566 33.93V35.7221C85.7985 35.8753 84.8386 35.7476 84.277 35.3392C83.7255 34.9307 83.4498 34.2006 83.4498 33.1488V29.9628H82.1172V28.0635H83.4498V26.5164L85.4258 25.919V28.0635H87.1566V29.9628Z" fill="white"/>
<path d="M93.7077 28.0635H95.8215L93.0338 35.7221C92.6355 36.8249 92.1045 37.6214 91.4408 38.1116C90.7872 38.612 89.9703 38.8366 88.99 38.7856V36.9475C89.521 36.9577 89.9397 36.8454 90.246 36.6105C90.5626 36.3756 90.8128 35.9978 90.9966 35.477L87.8565 28.0635H90.0163L92.0075 33.2101L93.7077 28.0635Z" fill="white"/>
<path d="M101.219 27.849C102.251 27.849 103.129 28.2422 103.854 29.0284C104.589 29.8045 104.957 30.7593 104.957 31.8928C104.957 33.0263 104.589 33.9861 103.854 34.7724C103.129 35.5485 102.251 35.9365 101.219 35.9365C100.147 35.9365 99.3198 35.5638 98.7378 34.8184V38.7856H96.7619V28.0635H98.7378V28.9672C99.3198 28.2217 100.147 27.849 101.219 27.849ZM99.3352 33.4551C99.7334 33.8534 100.239 34.0525 100.852 34.0525C101.464 34.0525 101.97 33.8534 102.368 33.4551C102.776 33.0467 102.981 32.5259 102.981 31.8928C102.981 31.2597 102.776 30.744 102.368 30.3457C101.97 29.9373 101.464 29.733 100.852 29.733C100.239 29.733 99.7334 29.9373 99.3352 30.3457C98.9369 30.744 98.7378 31.2597 98.7378 31.8928C98.7378 32.5259 98.9369 33.0467 99.3352 33.4551Z" fill="white"/>
<path d="M108.02 32.7046C108.285 33.6645 109.005 34.1444 110.179 34.1444C110.935 34.1444 111.507 33.8891 111.895 33.3786L113.488 34.2976C112.732 35.3902 111.619 35.9365 110.149 35.9365C108.883 35.9365 107.867 35.5536 107.101 34.7877C106.335 34.0219 105.952 33.0569 105.952 31.8928C105.952 30.7389 106.33 29.779 107.085 29.0131C107.841 28.2371 108.811 27.849 109.996 27.849C111.119 27.849 112.043 28.2371 112.768 29.0131C113.503 29.7892 113.871 30.7491 113.871 31.8928C113.871 32.1481 113.845 32.4187 113.794 32.7046H108.02ZM107.989 31.1729H111.895C111.783 30.6521 111.548 30.264 111.19 30.0088C110.843 29.7535 110.445 29.6258 109.996 29.6258C109.465 29.6258 109.026 29.7637 108.678 30.0394C108.331 30.3049 108.101 30.6827 107.989 31.1729Z" fill="white"/>
<defs>
<clipPath id="clip0_1_1725">
<rect width="24" height="24" fill="white" transform="translate(12 20)"/>
</clipPath>
</defs>
</svg>
